<?xml version="1.0" encoding="UTF-8"?>
<svg width="47px" height="47px" viewBox="0 0 47 47" version="1.1" xmlns="http://www.w3.org/2000/svg" xmlns:xlink="http://www.w3.org/1999/xlink">
    <!-- Generator: Sketch 50.2 (55047) - http://www.bohemiancoding.com/sketch -->
    <title>Group 15</title>
    <desc>Created with Sketch.</desc>
    <defs>
        <path d="M12.8191775,23 L1.324616,23 C0.5928365,23 0,22.4315128 0,21.7304973 L0,1.2694136 C0,0.568219792 0.5929295,0 1.324616,0 L22.6754775,0 C23.4069775,0 24,0.568219792 24,1.2694136 L24,21.7304973 C24,22.431602 23.4068845,23 22.6754775,23 L16.5596525,23 L16.5596525,14.0931326 L19.6792605,14.0931326 L20.1463775,10.6219683 L16.5596525,10.6219683 L16.5596525,8.40584881 C16.5596525,7.40086669 16.850856,6.71600479 18.354645,6.71600479 L20.2726555,6.71520123 L20.2726555,3.61056444 C19.940943,3.56826217 18.802392,3.47375229 17.477776,3.47375229 C14.712417,3.47375229 12.8191775,5.09139788 12.8191775,8.06207931 L12.8191775,10.6219683 L9.691561,10.6219683 L9.691561,14.0931326 L12.8191775,14.0931326 L12.8191775,23 Z" id="path-1"></path>
    </defs>
    <g id="Welcome" stroke="none" stroke-width="1" fill="none" fill-rule="evenodd">
        <g id="Desktop-HD" transform="translate(-1230.000000, -4936.000000)">
            <g id="Socials" transform="translate(1049.000000, 4936.000000)">
                <g id="Group-15" transform="translate(181.000000, 0.000000)">
                    <g id="2.-Icon-/-3.-Brand-/-facebook-o-/-2.-Light" transform="translate(11.000000, 12.000000)">
                        <mask id="mask-2" fill="white">
                            <use xlink:href="#path-1"></use>
                        </mask>
                        <g id="facebook" fill-rule="nonzero"></g>
                        <g id="3.-Color-/-2.-Gray-/-7.-Gray-98" mask="url(#mask-2)" fill="#FAFAFA" fill-rule="evenodd">
                            <rect id="Gray-98" x="0" y="0" width="24" height="23"></rect>
                        </g>
                    </g>
                    <rect id="Placeholder" fill-opacity="0.1" fill="#000000" x="0" y="0" width="47" height="47" rx="23.5"></rect>
                </g>
            </g>
        </g>
    </g>
</svg>