<?xml version="1.0" encoding="UTF-8"?>
<svg width="47px" height="47px" viewBox="0 0 47 47" version="1.1" xmlns="http://www.w3.org/2000/svg" xmlns:xlink="http://www.w3.org/1999/xlink">
    <!-- Generator: Sketch 50.2 (55047) - http://www.bohemiancoding.com/sketch -->
    <title>Group 12</title>
    <desc>Created with Sketch.</desc>
    <defs></defs>
    <g id="Welcome" stroke="none" stroke-width="1" fill="none" fill-rule="evenodd">
        <g id="Desktop-HD" transform="translate(-1049.000000, -4936.000000)">
            <g id="Socials" transform="translate(1049.000000, 4936.000000)">
                <g id="Group-12">
                    <g id="ig-logo" transform="translate(9.000000, 9.000000)" fill="#FFFFFF" fill-rule="nonzero">
                        <path d="M14.77,7.18 C10.5781587,7.18 7.18,10.5781587 7.18,14.77 C7.18,18.9618413 10.5781587,22.36 14.77,22.36 C18.9618413,22.36 22.36,18.9618413 22.36,14.77 C22.36,12.7570068 21.5603416,10.8264606 20.1369405,9.40305953 C18.7135394,7.97965842 16.7829932,7.18 14.77,7.18 Z M14.77,19.7 C12.0472362,19.7 9.84,17.4927638 9.84,14.77 C9.84,12.0472362 12.0472362,9.84 14.77,9.84 C17.4927638,9.84 19.7,12.0472362 19.7,14.77 C19.7,17.4927638 17.4927638,19.7 14.77,19.7 Z" id="Shape"></path>
                        <circle id="Oval" cx="22.66" cy="6.9" r="1.77"></circle>
                        <path d="M28.78,5.1 C28.011886,3.11636787 26.4436321,1.54811402 24.46,0.78 C23.3109726,0.348607025 22.0970795,0.115296089 20.87,0.09 C19.29,0.02 18.79,0 14.78,0 C10.77,0 10.26,0 8.69,0.09 C7.46292054,0.115296089 6.24902741,0.348607025 5.1,0.78 C3.11636787,1.54811402 1.54811402,3.11636787 0.78,5.1 C0.348607025,6.24902741 0.115296089,7.46292054 0.09,8.69 C0.02,10.27 0,10.77 0,14.78 C0,18.79 0,19.3 0.09,20.87 C0.115296089,22.0970795 0.348607025,23.3109726 0.78,24.46 C1.54811402,26.4436321 3.11636787,28.011886 5.1,28.78 C6.24603924,29.2284804 7.46002588,29.4787172 8.69,29.52 C10.27,29.59 10.77,29.61 14.78,29.61 C18.79,29.61 19.3,29.61 20.87,29.52 C22.0970795,29.4947039 23.3109726,29.261393 24.46,28.83 C26.4436321,28.061886 28.011886,26.4936321 28.78,24.51 C29.211393,23.3609726 29.4447039,22.1470795 29.47,20.92 C29.54,19.34 29.56,18.84 29.56,14.83 C29.56,10.82 29.56,10.31 29.47,8.74 C29.4503842,7.49608153 29.2169823,6.2648023 28.78,5.1 Z M26.78,20.75 C26.7714366,21.6958758 26.5988792,22.6330993 26.27,23.52 C25.7722411,24.811497 24.751497,25.8322411 23.46,26.33 C22.5825654,26.6554877 21.6557828,26.827991 20.72,26.84 C19.16,26.91 18.72,26.93 14.72,26.93 C10.72,26.93 10.31,26.93 8.72,26.84 C7.78421716,26.827991 6.85743461,26.6554877 5.98,26.33 C4.68401011,25.8356761 3.65892462,24.8142257 3.16,23.52 C2.83451229,22.6425654 2.66200897,21.7157828 2.65,20.78 C2.58,19.22 2.56,18.78 2.56,14.78 C2.56,10.78 2.56,10.37 2.65,8.78 C2.6585634,7.83412421 2.8311208,6.89690068 3.16,6.01 C3.65892462,4.71577432 4.68401011,3.69432388 5.98,3.2 C6.85743461,2.87451229 7.78421716,2.70200897 8.72,2.69 C10.28,2.62 10.72,2.6 14.72,2.6 C18.72,2.6 19.13,2.6 20.72,2.69 C21.6557828,2.70200897 22.5825654,2.87451229 23.46,3.2 C24.751497,3.69775892 25.7722411,4.71850301 26.27,6.01 C26.5954877,6.88743461 26.767991,7.81421716 26.78,8.75 C26.85,10.31 26.87,10.75 26.87,14.75 C26.87,18.75 26.87,19.18 26.8,20.75 L26.78,20.75 Z" id="Shape"></path>
                    </g>
                    <rect id="Placeholder" fill-opacity="0.1" fill="#000000" x="0" y="0" width="47" height="47" rx="23.5"></rect>
                </g>
            </g>
        </g>
    </g>
</svg>