<?xml version="1.0" encoding="UTF-8"?>
<svg width="47px" height="47px" viewBox="0 0 47 47" version="1.1" xmlns="http://www.w3.org/2000/svg" xmlns:xlink="http://www.w3.org/1999/xlink">
    <!-- Generator: Sketch 50.2 (55047) - http://www.bohemiancoding.com/sketch -->
    <title>Group 16</title>
    <desc>Created with Sketch.</desc>
    <defs>
        <path d="M23.9266153,5.70706618 C23.961473,5.73335716 23.9729394,5.77980456 23.9488601,5.8174883 L16.673228,17.1125322 L11.4425058,8.99212435 L15.6105261,2.52103737 C15.7600474,2.28923855 16.0359279,2.15625 16.3131844,2.15625 C16.3801479,2.15625 16.4468821,2.16610912 16.5122403,2.1821028 C16.5642976,2.19481011 16.6156669,2.2105847 16.6645135,2.23402749 L23.9043706,5.69238705 L23.9126264,5.69633069 C23.9183595,5.69895979 23.9220288,5.70356071 23.9266153,5.70706618 Z M9.14671202,7.51807664 L15.9999236,18.1578179 L9.14671202,14.8841525 L9.14671202,7.51807664 Z M17.0296023,18.6496783 L24,7.82831022 L24,20.7961179 C24,21.4494488 23.4048961,21.6950504 22.67082,21.3442849 L17.0296023,18.6496783 Z M7.95696294,5.71758257 C7.98333556,5.73007079 8.00007644,5.75592359 8.00007644,5.7839673 L8.00007644,20.7961179 C8.00007644,21.2763665 7.72855314,21.5625 7.34144897,21.5625 C7.20408202,21.5625 7.05203814,21.5263499 6.89242647,21.4501061 L0.664589982,18.4752815 C0.299042559,18.3006655 0,17.8383824 0,17.4479614 L0,2.86303923 C0,2.4789718 0.217172779,2.25002117 0.526764385,2.25002117 C0.636841401,2.25002117 0.758384773,2.27894125 0.886119976,2.33984869 L7.95696294,5.71758257 Z" id="path-1"></path>
    </defs>
    <g id="Welcome" stroke="none" stroke-width="1" fill="none" fill-rule="evenodd">
        <g id="Desktop-HD" transform="translate(-1308.000000, -4936.000000)">
            <g id="Socials" transform="translate(1049.000000, 4936.000000)">
                <g id="Group-16" transform="translate(259.000000, 0.000000)">
                    <g id="2.-Icon-/-3.-Brand-/-medium-/-2.-Light" transform="translate(12.000000, 12.000000)">
                        <mask id="mask-2" fill="white">
                            <use xlink:href="#path-1"></use>
                        </mask>
                        <g id="Combined-Shape"></g>
                        <g id="3.-Color-/-2.-Gray-/-7.-Gray-98" mask="url(#mask-2)" fill="#FAFAFA" fill-rule="evenodd">
                            <rect id="Gray-98" x="0" y="0" width="24" height="23"></rect>
                        </g>
                    </g>
                    <rect id="Placeholder" fill-opacity="0.1" fill="#000000" x="0" y="0" width="47" height="47" rx="23.5"></rect>
                </g>
            </g>
        </g>
    </g>
</svg>