<?xml version="1.0" encoding="UTF-8"?>
<svg width="47px" height="47px" viewBox="0 0 47 47" version="1.1" xmlns="http://www.w3.org/2000/svg" xmlns:xlink="http://www.w3.org/1999/xlink">
    <!-- Generator: Sketch 50.2 (55047) - http://www.bohemiancoding.com/sketch -->
    <title>Group 13</title>
    <desc>Created with Sketch.</desc>
    <defs>
        <path d="M24,4.45360214 C23.1181545,4.84326945 22.1686915,5.10678498 21.1727415,5.2245261 C22.189822,4.61900064 22.970241,3.65885022 23.3379115,2.51507981 C22.3856315,3.0757516 21.3333335,3.48364041 20.209192,3.70230227 C19.3132595,2.75056204 18.032752,2.15625 16.6156015,2.15625 C13.8982215,2.15625 11.693608,4.34987816 11.693608,7.05511912 C11.693608,7.43917948 11.735869,7.81202594 11.820391,8.17085575 C7.728121,7.96621053 4.100722,6.0178764 1.6707165,3.05052154 C1.2466985,3.77659134 1.004402,4.61900064 1.004402,5.51607541 C1.004402,7.21491066 1.8735695,8.71470765 3.1949285,9.59356044 C2.389153,9.56973199 1.6284555,9.34686479 0.96355,8.98242803 L0.96355,9.04270045 C0.96355,11.4171454 2.661032,13.3977181 4.91495,13.8462553 C4.502201,13.9611932 4.066913,14.0186619 3.6175385,14.0186619 C3.300581,14.0186619 2.9906675,13.9892269 2.6906145,13.9317578 C3.3174855,15.8772887 5.134707,17.2943864 7.290016,17.332232 C5.605212,18.6470069 3.4808945,19.4305459 1.1748545,19.4305459 C0.7776015,19.4305459 0.3845745,19.408119 0,19.3632654 C2.179257,20.7509277 4.768445,21.5625 7.5478075,21.5625 C16.6057405,21.5625 21.5573165,14.0985579 21.5573165,7.62420109 C21.5573165,7.41114569 21.5530905,7.1980903 21.544638,6.98924023 C22.5067795,6.2982123 23.3421375,5.43617939 24,4.45360214" id="path-1"></path>
    </defs>
    <g id="Welcome" stroke="none" stroke-width="1" fill="none" fill-rule="evenodd">
        <g id="Desktop-HD" transform="translate(-1153.000000, -4936.000000)">
            <g id="Socials" transform="translate(1049.000000, 4936.000000)">
                <g id="Group-13" transform="translate(104.000000, 0.000000)">
                    <g id="2.-Icon-/-3.-Brand-/-twitter-/-2.-Light" transform="translate(12.000000, 12.000000)">
                        <mask id="mask-2" fill="white">
                            <use xlink:href="#path-1"></use>
                        </mask>
                        <g id="twitter" fill-rule="nonzero"></g>
                        <g id="3.-Color-/-2.-Gray-/-7.-Gray-98" mask="url(#mask-2)" fill="#FAFAFA" fill-rule="evenodd">
                            <rect id="Gray-98" x="0" y="0" width="24" height="23"></rect>
                        </g>
                    </g>
                    <rect id="Placeholder" fill-opacity="0.1" fill="#000000" x="0" y="0" width="47" height="47" rx="23.5"></rect>
                </g>
            </g>
        </g>
    </g>
</svg>